<svg xmlns="http://www.w3.org/2000/svg" enable-background="new 0 0 24 24" height="24" viewBox="0 0 24 24" width="24">
	<g>
		<rect fill="none" height="24" width="24"/>
		<path d="M15.1,19.37L16.1,21.11C15.14,21.55 14.09,21.84 13,21.95L13,19.93C13.74,19.84 14.44,19.65 15.1,19.37ZM4.07,13L2.05,13C2.16,14.1 2.45,15.14 2.89,16.1L4.63,15.1C4.35,14.44 4.16,13.74 4.07,13ZM15.1,4.63L16.1,2.89C15.14,2.45 14.1,2.16 13,2.05L13,4.07C13.74,4.16 14.44,4.35 15.1,4.63ZM19.93,11L21.95,11C21.84,9.9 21.55,8.86 21.11,7.9L19.37,8.9C19.65,9.56 19.84,10.26 19.93,11ZM8.9,19.37L7.9,21.11C8.86,21.55 9.91,21.84 11,21.95L11,19.93C10.26,19.84 9.56,19.65 8.9,19.37ZM11,4.07L11,2.05C9.9,2.16 8.86,2.45 7.9,2.89L8.9,4.63C9.56,4.35 10.26,4.16 11,4.07ZM18.36,7.17L20.1,6.16C19.47,5.29 18.7,4.52 17.83,3.89L16.82,5.63C17.41,6.08 17.92,6.59 18.36,7.17ZM4.63,8.9L2.89,7.9C2.45,8.86 2.16,9.9 2.05,11L4.07,11C4.16,10.26 4.35,9.56 4.63,8.9ZM19.93,13C19.84,13.74 19.65,14.44 19.37,15.1L21.11,16.1C21.55,15.14 21.84,14.09 21.95,13L19.93,13ZM16.83,18.36L17.84,20.1C18.71,19.47 19.48,18.7 20.11,17.83L18.37,16.82C17.92,17.41 17.41,17.92 16.83,18.36ZM7.17,5.64L6.17,3.89C5.29,4.53 4.53,5.29 3.9,6.17L5.64,7.18C6.08,6.59 6.59,6.08 7.17,5.64ZM5.64,16.83L3.9,17.83C4.53,18.7 5.3,19.47 6.17,20.1L7.18,18.36C6.59,17.92 6.08,17.41 5.64,16.83Z"/>
	</g>
</svg>
